<mxfile host="app.diagrams.net" agent="Mozilla/5.0 (X11; Linux x86_64; rv:135.0) Gecko/20100101 Firefox/135.0" version="26.0.6">
  <diagram name="Page-1" id="120lmzPujFeDM1L3ysvh">
    <mxGraphModel dx="1896" dy="2327" grid="1" gridSize="10" guides="1" tooltips="1" connect="1" arrows="1" fold="1" page="1" pageScale="1" pageWidth="1169" pageHeight="827" math="0" shadow="0">
      <root>
        <mxCell id="0" />
        <mxCell id="1" parent="0" />
        <mxCell id="nKOzAT5v830jGM1-BIpW-1" value="" style="rounded=0;whiteSpace=wrap;html=1;" vertex="1" parent="1">
          <mxGeometry x="220" y="140" width="120" height="60" as="geometry" />
        </mxCell>
        <mxCell id="nKOzAT5v830jGM1-BIpW-2" value="&lt;div&gt;&lt;br&gt;&lt;/div&gt;&lt;div&gt;&lt;br&gt;&lt;/div&gt;&lt;div&gt;&lt;br&gt;&lt;/div&gt;" style="rounded=0;whiteSpace=wrap;html=1;" vertex="1" parent="1">
          <mxGeometry x="300" y="234" width="120" height="60" as="geometry" />
        </mxCell>
        <mxCell id="nKOzAT5v830jGM1-BIpW-4" value="" style="endArrow=classic;html=1;rounded=0;exitX=1;exitY=0.5;exitDx=0;exitDy=0;entryX=1;entryY=0.25;entryDx=0;entryDy=0;curved=1;" edge="1" parent="1" source="nKOzAT5v830jGM1-BIpW-1" target="nKOzAT5v830jGM1-BIpW-2">
          <mxGeometry width="50" height="50" relative="1" as="geometry">
            <mxPoint x="360" y="530" as="sourcePoint" />
            <mxPoint x="410" y="480" as="targetPoint" />
            <Array as="points">
              <mxPoint x="480" y="200" />
            </Array>
          </mxGeometry>
        </mxCell>
        <mxCell id="nKOzAT5v830jGM1-BIpW-5" value="&lt;div&gt;&lt;br&gt;&lt;/div&gt;&lt;div&gt;&lt;br&gt;&lt;/div&gt;&lt;div&gt;&lt;br&gt;&lt;/div&gt;" style="rounded=0;whiteSpace=wrap;html=1;" vertex="1" parent="1">
          <mxGeometry x="370" y="320" width="120" height="60" as="geometry" />
        </mxCell>
        <mxCell id="nKOzAT5v830jGM1-BIpW-6" value="&lt;div&gt;&lt;br&gt;&lt;/div&gt;&lt;div&gt;&lt;br&gt;&lt;/div&gt;&lt;div&gt;&lt;br&gt;&lt;/div&gt;" style="rounded=0;whiteSpace=wrap;html=1;" vertex="1" parent="1">
          <mxGeometry x="435" y="420" width="120" height="60" as="geometry" />
        </mxCell>
        <mxCell id="nKOzAT5v830jGM1-BIpW-7" value="&lt;div&gt;&lt;br&gt;&lt;/div&gt;&lt;div&gt;&lt;br&gt;&lt;/div&gt;&lt;div&gt;&lt;br&gt;&lt;/div&gt;" style="rounded=0;whiteSpace=wrap;html=1;" vertex="1" parent="1">
          <mxGeometry x="490" y="520" width="120" height="60" as="geometry" />
        </mxCell>
        <mxCell id="nKOzAT5v830jGM1-BIpW-8" value="" style="endArrow=classic;html=1;rounded=0;exitX=1;exitY=0.75;exitDx=0;exitDy=0;entryX=1;entryY=0.25;entryDx=0;entryDy=0;curved=1;" edge="1" parent="1" source="nKOzAT5v830jGM1-BIpW-2" target="nKOzAT5v830jGM1-BIpW-5">
          <mxGeometry width="50" height="50" relative="1" as="geometry">
            <mxPoint x="450" y="280" as="sourcePoint" />
            <mxPoint x="510" y="349" as="targetPoint" />
            <Array as="points">
              <mxPoint x="560" y="279" />
            </Array>
          </mxGeometry>
        </mxCell>
        <mxCell id="nKOzAT5v830jGM1-BIpW-9" value="" style="endArrow=classic;html=1;rounded=0;exitX=1;exitY=0.75;exitDx=0;exitDy=0;entryX=1;entryY=0.25;entryDx=0;entryDy=0;curved=1;" edge="1" parent="1" source="nKOzAT5v830jGM1-BIpW-5" target="nKOzAT5v830jGM1-BIpW-6">
          <mxGeometry width="50" height="50" relative="1" as="geometry">
            <mxPoint x="550" y="360" as="sourcePoint" />
            <mxPoint x="610" y="429" as="targetPoint" />
            <Array as="points">
              <mxPoint x="630" y="370" />
            </Array>
          </mxGeometry>
        </mxCell>
        <mxCell id="nKOzAT5v830jGM1-BIpW-10" value="" style="endArrow=classic;html=1;rounded=0;exitX=1;exitY=0.75;exitDx=0;exitDy=0;entryX=1;entryY=0.25;entryDx=0;entryDy=0;curved=1;" edge="1" parent="1" source="nKOzAT5v830jGM1-BIpW-6" target="nKOzAT5v830jGM1-BIpW-7">
          <mxGeometry width="50" height="50" relative="1" as="geometry">
            <mxPoint x="590" y="470" as="sourcePoint" />
            <mxPoint x="650" y="539" as="targetPoint" />
            <Array as="points">
              <mxPoint x="670" y="480" />
            </Array>
          </mxGeometry>
        </mxCell>
      </root>
    </mxGraphModel>
  </diagram>
</mxfile>
